HIERARCHY
ROOT hip
{
  OFFSET 0.0 0.0 0.0
  CHANNELS 6 Xposition Yposition Zposition Zrotation Yrotation Xrotation
  JOINT abdomen
  {
    OFFSET 0.0 20.6881 -0.73152
    CHANNELS 3 Zrotation Xrotation Yrotation
    JOINT chest
    {
      OFFSET 0.0 11.7043 -0.48768
      CHANNELS 3 Zrotation Xrotation Yrotation
      JOINT neck
      {
        OFFSET 0.0 22.1894 -2.19456
        CHANNELS 3 Zrotation Xrotation Yrotation
        JOINT head
        {
          OFFSET -0.24384 7.07133 1.2192
          CHANNELS 3 Zrotation Xrotation Yrotation
          JOINT leftEye
          {
            OFFSET 4.14528 8.04674 8.04672
            CHANNELS 3 Zrotation Xrotation Yrotation
            End Site
            {
              OFFSET 1.0 0.0 0.0
            }
          }
          JOINT rightEye
          {
            OFFSET -3.6576 8.04674 8.04672
            CHANNELS 3 Zrotation Xrotation Yrotation
            End Site
            {
              OFFSET 1.0 0.0 0.0
            }
          }
        }
      }
      JOINT rCollar
      {
        OFFSET -2.68224 19.2634 -4.8768
        CHANNELS 3 Zrotation Xrotation Yrotation
        JOINT rShldr
        {
          OFFSET -8.77824 -1.95073 1.46304
          CHANNELS 3 Zrotation Xrotation Yrotation
          JOINT rForeArm
          {
            OFFSET -28.1742 -1.7115 0.48768
            CHANNELS 3 Zrotation Xrotation Yrotation
            JOINT rHand
            {
              OFFSET -22.5879 0.773209 7.07136
              CHANNELS 3 Zrotation Xrotation Yrotation
              JOINT rThumb1
              {
                OFFSET -1.2192 -0.487915 3.41376
                CHANNELS 3 Zrotation Xrotation Yrotation
                JOINT rThumb2
                {
                  OFFSET -3.37035 -0.52449 3.41376
                  CHANNELS 3 Zrotation Xrotation Yrotation
                  End Site
                  {
                    OFFSET -1.78271 -1.18214 1.43049
                  }
                }
              }
              JOINT rIndex1
              {
                OFFSET -7.75947 0.938293 5.60832
                CHANNELS 3 Zrotation Xrotation Yrotation
                JOINT rIndex2
                {
                  OFFSET -2.54057 -0.884171 1.56538
                  CHANNELS 3 Zrotation Xrotation Yrotation
                  End Site
                  {
                    OFFSET -1.62519 -0.234802 1.16502
                  }
                }
              }
              JOINT rMid1
              {
                OFFSET -8.24714 1.18213 3.41376
                CHANNELS 3 Zrotation Xrotation Yrotation
                JOINT rMid2
                {
                  OFFSET -3.10165 -0.590103 1.0647
                  CHANNELS 3 Zrotation Xrotation Yrotation
                  End Site
                  {
                    OFFSET -2.48547 -0.328903 0.83742
                  }
                }
              }
              JOINT rRing1
              {
                OFFSET -8.82822 0.546677 1.51678
                CHANNELS 3 Zrotation Xrotation Yrotation
                JOINT rRing2
                {
                  OFFSET -2.60934 -0.819778 -0.0198488
                  CHANNELS 3 Zrotation Xrotation Yrotation
                  End Site
                  {
                    OFFSET -2.33842 -0.294052 0.168128
                  }
                }
              }
              JOINT rPinky1
              {
                OFFSET -8.27202 -0.0477905 -0.4584
                CHANNELS 3 Zrotation Xrotation Yrotation
                JOINT rPinky2
                {
                  OFFSET -1.82734 -0.647385 -0.700984
                  CHANNELS 3 Zrotation Xrotation Yrotation
                  End Site
                  {
                    OFFSET -1.69225 -0.51767 -0.607171
                  }
                }
              }
            }
          }
        }
      }
      JOINT lCollar
      {
        OFFSET 2.68224 19.2634 -4.8768
        CHANNELS 3 Zrotation Xrotation Yrotation
        JOINT lShldr
        {
          OFFSET 8.77824 -1.95073 1.46304
          CHANNELS 3 Zrotation Xrotation Yrotation
          JOINT lForeArm
          {
            OFFSET 28.1742 -1.7115 0.48768
            CHANNELS 3 Zrotation Xrotation Yrotation
            JOINT lHand
            {
              OFFSET 22.5879 0.773209 7.07136
              CHANNELS 3 Zrotation Xrotation Yrotation
              JOINT lThumb1
              {
                OFFSET 1.2192 -0.487915 3.41376
                CHANNELS 3 Zrotation Xrotation Yrotation
                JOINT lThumb2
                {
                  OFFSET 3.37035 -0.52449 3.41376
                  CHANNELS 3 Zrotation Xrotation Yrotation
                  End Site
                  {
                    OFFSET 1.78271 -1.18214 1.43049
                  }
                }
              }
              JOINT lIndex1
              {
                OFFSET 7.75947 0.938293 5.60832
                CHANNELS 3 Zrotation Xrotation Yrotation
                JOINT lIndex2
                {
                  OFFSET 2.54057 -0.884171 1.56538
                  CHANNELS 3 Zrotation Xrotation Yrotation
                  End Site
                  {
                    OFFSET 1.62519 -0.234802 1.16502
                  }
                }
              }
              JOINT lMid1
              {
                OFFSET 8.24714 1.18213 3.41376
                CHANNELS 3 Zrotation Xrotation Yrotation
                JOINT lMid2
                {
                  OFFSET 3.10165 -0.590103 1.0647
                  CHANNELS 3 Zrotation Xrotation Yrotation
                  End Site
                  {
                    OFFSET 2.48547 -0.328903 0.83742
                  }
                }
              }
              JOINT lRing1
              {
                OFFSET 8.82822 0.546677 1.51678
                CHANNELS 3 Zrotation Xrotation Yrotation
                JOINT lRing2
                {
                  OFFSET 2.60934 -0.819778 -0.0198488
                  CHANNELS 3 Zrotation Xrotation Yrotation
                  End Site
                  {
                    OFFSET 2.33842 -0.294052 0.168128
                  }
                }
              }
              JOINT lPinky1
              {
                OFFSET 8.27202 -0.0477905 -0.4584
                CHANNELS 3 Zrotation Xrotation Yrotation
                JOINT lPinky2
                {
                  OFFSET 1.82734 -0.647385 -0.700984
                  CHANNELS 3 Zrotation Xrotation Yrotation
                  End Site
                  {
                    OFFSET 1.69225 -0.51767 -0.607171
                  }
                }
              }
            }
          }
        }
      }
    }
  }
  JOINT rButtock
  {
    OFFSET -8.77824 4.35084 1.2192
    CHANNELS 3 Zrotation Xrotation Yrotation
    JOINT rThigh
    {
      OFFSET 0.0 -1.70687 -2.19456
      CHANNELS 3 Zrotation Xrotation Yrotation
      JOINT rShin
      {
        OFFSET 0.0 -36.8199 0.73152
        CHANNELS 3 Zrotation Xrotation Yrotation
        JOINT rFoot
        {
          OFFSET 0.73152 -45.1104 -5.12064
          CHANNELS 3 Zrotation Xrotation Yrotation
          End Site
          {
            OFFSET -1.1221 -3.69964 12.103
          }
        }
      }
    }
  }
  JOINT lButtock
  {
    OFFSET 8.77824 4.35084 1.2192
    CHANNELS 3 Zrotation Xrotation Yrotation
    JOINT lThigh
    {
      OFFSET 0.0 -1.70687 -2.19456
      CHANNELS 3 Zrotation Xrotation Yrotation
      JOINT lShin
      {
        OFFSET 0.0 -36.8199 0.73152
        CHANNELS 3 Zrotation Xrotation Yrotation
        JOINT lFoot
        {
          OFFSET -0.73152 -45.1104 -5.12064
          CHANNELS 3 Zrotation Xrotation Yrotation
          End Site
          {
            OFFSET 1.1221 -3.69964 12.103
          }
        }
      }
    }
  }
}
MOTION
Frames: 5
Frame Time: 0.00833333
-16.170099999999998 80.8662 49.001099999999994 -8.1764 6.6006 0.6298 6.78159 6.54308 5.72551 -2.43314 0.899753 1.74685 3.94987 11.338 -5.70408 1.01191 -23.6284 -11.4171 -0.0 0.0 0.0 -0.0 0.0 0.0 -1.63467e-13 7.63318e-14 1.38454e-13 81.142 49.9079 0.691288 -27.0526 -26.5151 61.7015 -0.266638 14.5432 2.08943 2.38812e-10 -1.30364e-09 3.25527e-10 4.13285e-10 -2.25092e-09 5.62394e-10 2.38818e-10 -1.30364e-09 3.25504e-10 7.73091 5.47488 0.417314 2.38813e-10 -1.30365e-09 3.25527e-10 2.90554 0.965183 0.102902 2.38819e-10 -1.30365e-09 3.25531e-10 10.2786 0.731801 0.0259123 2.38809e-10 -1.30365e-09 3.2553e-10 2.22167 -0.733487 -0.20892 -1.63346e-13 7.6336e-14 1.38205e-13 -96.8797 39.8429 21.6966 22.6223 -16.7208 -45.5059 1.74765 -34.7139 5.58748 6.9691e-10 6.8571e-10 -9.84312e-10 1.22715e-09 1.19537e-09 -1.68013e-09 6.96907e-10 6.8571e-10 -9.84299e-10 -7.73091 5.47488 -0.417314 6.96909e-10 6.85708e-10 -9.84315e-10 -2.90554 0.965183 -0.102902 6.96902e-10 6.85708e-10 -9.84312e-10 -10.2786 0.731801 -0.0259123 6.96933e-10 6.85723e-10 -9.84318e-10 -2.22167 -0.733487 0.20892 -2.03217e-16 0.0 -3.88251e-19 -0.364449 -22.2497 -7.36356 -0.285544 38.3969 0.735442 2.64034 -17.8099 6.97955 2.03217e-16 0.0 3.88251e-19 29.4531 -49.5707 28.1845 0.954206 58.1963 -1.40529 0.491775 10.7987 -3.58188
-16.1174 80.9714 49.7542 -8.2881 5.6979 0.8036 6.96002 6.42987 5.8625 -2.50672 0.958916 1.78727 3.95961 11.2784 -5.54762 0.820124 -23.6719 -11.1547 -0.0 0.0 0.0 -0.0 0.0 0.0 -1.13659e-13 1.10906e-13 1.61201e-13 81.4859 49.8779 0.228047 -27.0189 -26.4021 61.5272 -0.277729 14.8054 2.1291 -2.98657e-10 -2.49772e-09 6.65684e-10 -5.11479e-10 -4.32967e-09 1.15523e-09 -2.98652e-10 -2.49772e-09 6.65664e-10 7.73091 5.47488 0.417314 -2.98656e-10 -2.49773e-09 6.65689e-10 2.90554 0.965183 0.102902 -2.9865e-10 -2.49772e-09 6.65689e-10 10.2786 0.731801 0.0259123 -2.9866e-10 -2.49772e-09 6.65689e-10 2.22167 -0.733487 -0.20892 -1.13602e-13 1.10914e-13 1.60922e-13 -96.9551 40.2285 21.6433 22.5992 -16.6841 -45.4405 1.72178 -34.4988 5.54241 4.08748e-10 4.40813e-10 -9.24196e-10 7.29904e-10 7.72169e-10 -1.58322e-09 4.08746e-10 4.40814e-10 -9.24182e-10 -7.73091 5.47488 -0.417314 4.08747e-10 4.40812e-10 -9.24198e-10 -2.90554 0.965183 -0.102902 4.08739e-10 4.40812e-10 -9.24196e-10 -10.2786 0.731801 -0.0259123 4.08771e-10 4.40826e-10 -9.24204e-10 -2.22167 -0.733487 0.20892 -2.03217e-16 0.0 -3.88251e-19 -0.360928 -21.7095 -7.36504 -0.280321 37.8835 0.701019 3.13275 -18.075 8.08056 2.03217e-16 0.0 3.88251e-19 28.24 -49.2179 25.6109 0.798202 55.1054 -1.22465 0.421154 11.3983 -2.32436
-16.060299999999998 81.0761 50.5035 -8.401 4.7444 0.9854 7.14981 6.30207 6.02721 -2.56077 1.02241 1.83587 3.95242 11.2201 -5.38889 0.627338 -23.6849 -10.8862 -0.0 0.0 0.0 -0.0 0.0 0.0 2.07086e-14 1.29702e-13 1.71281e-13 81.8461 49.765 -0.294861 -26.9981 -26.3327 61.4185 -0.285557 14.9779 2.15535 -1.18806e-09 -3.85027e-09 1.07779e-09 -2.04271e-09 -6.68978e-09 1.87482e-09 -1.18805e-09 -3.85028e-09 1.07778e-09 7.73091 5.47488 0.417314 -1.18806e-09 -3.85029e-09 1.0778e-09 2.90554 0.965183 0.102902 -1.18805e-09 -3.85027e-09 1.0778e-09 10.2786 0.731801 0.0259123 -1.18806e-09 -3.85027e-09 1.0778e-09 2.22167 -0.733487 -0.20892 2.06678e-14 1.29712e-13 1.70967e-13 -97.065 40.6295 21.5727 22.557 -16.617 -45.3216 1.67443 -34.0948 5.45869 -2.71367e-10 -1.60311e-10 -5.74142e-10 -4.49745e-10 -2.68099e-10 -9.96133e-10 -2.71368e-10 -1.6031e-10 -5.74127e-10 -7.73091 5.47488 -0.417314 -2.71366e-10 -1.60312e-10 -5.74142e-10 -2.90554 0.965183 -0.102902 -2.71377e-10 -1.60312e-10 -5.74142e-10 -10.2786 0.731801 -0.0259123 -2.71344e-10 -1.603e-10 -5.74151e-10 -2.22167 -0.733487 0.20892 -2.03217e-16 0.0 -3.88251e-19 -0.370147 -21.1518 -7.38041 -0.275509 37.3184 0.66065 3.67219 -18.287 9.28704 2.03217e-16 0.0 3.88251e-19 27.1974 -48.7204 23.0397 0.670728 52.0525 -1.07083 0.305167 12.0575 -1.05332
-16.0001 81.1787 51.247 -8.4981 3.7247 1.1721 7.3075 6.17928 6.21337 -2.60285 1.08062 1.89018 3.94735 11.1607 -5.22884 0.454845 -23.675 -10.6109 -0.0 0.0 0.0 -0.0 0.0 0.0 1.6128e-13 1.32943e-13 1.68538e-13 82.2129 49.5791 -0.812712 -26.9788 -26.268 61.3128 -0.284059 14.9407 2.14974 -1.98168e-09 -4.88009e-09 1.3947e-09 -3.40919e-09 -8.4892e-09 2.42895e-09 -1.98168e-09 -4.88011e-09 1.39469e-09 7.73091 5.47488 0.417314 -1.98168e-09 -4.88013e-09 1.39473e-09 2.90554 0.965183 0.102902 -1.98167e-09 -4.88009e-09 1.39471e-09 10.2786 0.731801 0.0259123 -1.98168e-09 -4.88009e-09 1.39472e-09 2.22167 -0.733487 -0.20892 1.61145e-13 1.32955e-13 1.68197e-13 -97.1687 41.0118 21.498 22.5074 -16.5385 -45.183 1.6231 -33.6431 5.36632 -9.44079e-10 -7.65588e-10 -1.65843e-10 -1.61834e-09 -1.31611e-09 -3.08558e-10 -9.4408e-10 -7.65586e-10 -1.65828e-10 -7.73091 5.47488 -0.417314 -9.44078e-10 -7.65588e-10 -1.65841e-10 -2.90554 0.965183 -0.102902 -9.4409e-10 -7.65588e-10 -1.65844e-10 -10.2786 0.731801 -0.0259123 -9.44059e-10 -7.65579e-10 -1.65853e-10 -2.22167 -0.733487 0.20892 -2.03217e-16 0.0 -3.88251e-19 -0.364741 -20.5829 -7.30244 -0.271076 36.7388 0.620141 4.18205 -18.468 10.4108 2.03217e-16 0.0 3.88251e-19 26.3078 -48.112 20.5676 0.569132 49.132 -0.943345 0.160187 12.701 0.112748
-15.935499999999998 81.28 51.986999999999995 -8.5585 2.655 1.3561 7.38931 6.08107 6.41474 -2.64045 1.12393 1.94772 3.96344 11.0977 -5.06842 0.324078 -23.6499 -10.3276 -0.0 0.0 0.0 -0.0 0.0 0.0 2.29699e-13 1.20855e-13 1.52816e-13 82.5784 49.3309 -1.26205 -26.9486 -26.1677 61.148 -0.267796 14.5739 2.09404 -2.23181e-09 -5.10599e-09 1.44928e-09 -3.83972e-09 -8.88586e-09 2.52543e-09 -2.2318e-09 -5.10601e-09 1.44927e-09 7.73091 5.47488 0.417314 -2.23181e-09 -5.10603e-09 1.4493e-09 2.90554 0.965183 0.102902 -2.2318e-09 -5.10599e-09 1.44928e-09 10.2786 0.731801 0.0259123 -2.23181e-09 -5.10599e-09 1.44929e-09 2.22167 -0.733487 -0.20892 2.29508e-13 1.20866e-13 1.52468e-13 -97.226 41.341 21.4325 22.4625 -16.4678 -45.0584 1.58347 -33.2848 5.2939 -1.21003e-09 -1.02294e-09 6.90053e-11 -2.08241e-09 -1.76255e-09 8.98157e-11 -1.21003e-09 -1.02294e-09 6.90212e-11 -7.73091 5.47488 -0.417314 -1.21003e-09 -1.02294e-09 6.90085e-11 -2.90554 0.965183 -0.102902 -1.21004e-09 -1.02294e-09 6.90053e-11 -10.2786 0.731801 -0.0259123 -1.21002e-09 -1.02294e-09 6.89958e-11 -2.22167 -0.733487 0.20892 -2.03217e-16 0.0 -3.88251e-19 -0.321942 -20.008 -7.02549 -0.266579 36.1819 0.585036 4.58443 -18.6448 11.2634 2.03217e-16 0.0 3.88251e-19 25.5367 -47.4364 18.278 0.489893 46.438 -0.841291 0.0141769 13.2553 1.05291
